#define sunbw_width 60
#define sunbw_height 60
static char sunbw_bits[] = {
  0x00, 0x00, 0x00, 0x00, 0x00, 0x00, 0x00, 0x00, 0x00, 0x00, 0x00, 0x00, 
  0x00, 0x00, 0x00, 0x00, 0x00, 0x00, 0x00, 0x00, 0x00, 0x00, 0x00, 0x00, 
  0x00, 0x00, 0x00, 0x00, 0x00, 0x00, 0x00, 0x00, 0x00, 0x00, 0x00, 0x40, 
  0x00, 0x00, 0x00, 0x00, 0x00, 0x00, 0x00, 0x60, 0x00, 0x00, 0x00, 0x00, 
  0x00, 0x00, 0x00, 0xE0, 0x00, 0x00, 0x00, 0x00, 0x00, 0x00, 0x00, 0xF0, 
  0x00, 0x00, 0x00, 0x00, 0x00, 0x00, 0x00, 0xF0, 0x00, 0x00, 0x00, 0x00, 
  0x00, 0x00, 0x00, 0xF0, 0x01, 0x00, 0x00, 0x00, 0x00, 0x00, 0x00, 0xF8, 
  0x01, 0x00, 0x00, 0x00, 0x00, 0x18, 0x00, 0xF8, 0x01, 0x00, 0x01, 0x00, 
  0x00, 0x70, 0x00, 0x00, 0x00, 0xC0, 0x01, 0x00, 0x00, 0xF0, 0x01, 0x00, 
  0x00, 0xF0, 0x00, 0x00, 0x00, 0xE0, 0x07, 0x00, 0x00, 0xFC, 0x00, 0x00, 
  0x00, 0xE0, 0x07, 0x00, 0x00, 0x7E, 0x00, 0x00, 0x00, 0xC0, 0x03, 0xF8, 
  0x01, 0x7C, 0x00, 0x00, 0x00, 0xC0, 0x01, 0xFF, 0x0F, 0x78, 0x00, 0x00, 
  0x00, 0xC0, 0xC0, 0xFF, 0x3F, 0x30, 0x00, 0x00, 0x00, 0x00, 0xE0, 0xFF, 
  0x7F, 0x00, 0x00, 0x00, 0x00, 0x00, 0xF0, 0xFF, 0xFF, 0x00, 0x00, 0x00, 
  0x00, 0x00, 0xF8, 0xFF, 0xFF, 0x01, 0x00, 0x00, 0x00, 0x00, 0xFC, 0xFF, 
  0xFF, 0x03, 0x00, 0x00, 0x00, 0x00, 0xFC, 0xFF, 0xFF, 0x03, 0x00, 0x00, 
  0x00, 0x00, 0xFE, 0xFF, 0xFF, 0x07, 0x00, 0x00, 0x00, 0x00, 0xFE, 0xFF, 
  0xFF, 0x07, 0x00, 0x00, 0x00, 0x00, 0xFF, 0xFF, 0xFF, 0x0F, 0x00, 0x00, 
  0x00, 0x08, 0xFF, 0xFF, 0xFF, 0x0F, 0x01, 0x00, 0x00, 0x0F, 0xFF, 0xFF, 
  0xFF, 0x0F, 0x0F, 0x00, 0xE0, 0x0F, 0xFF, 0xFF, 0xFF, 0x0F, 0x7F, 0x00, 
  0xF0, 0x0F, 0xFF, 0xFF, 0xFF, 0x0F, 0xFF, 0x00, 0xC0, 0x0F, 0xFF, 0xFF, 
  0xFF, 0x0F, 0x3F, 0x00, 0x00, 0x0E, 0xFF, 0xFF, 0xFF, 0x0F, 0x07, 0x00, 
  0x00, 0x00, 0xFF, 0xFF, 0xFF, 0x0F, 0x00, 0x00, 0x00, 0x00, 0xFE, 0xFF, 
  0xFF, 0x0F, 0x00, 0x00, 0x00, 0x00, 0xFE, 0xFF, 0xFF, 0x07, 0x00, 0x00, 
  0x00, 0x00, 0xFE, 0xFF, 0xFF, 0x07, 0x00, 0x00, 0x00, 0x00, 0xFC, 0xFF, 
  0xFF, 0x03, 0x00, 0x00, 0x00, 0x00, 0xFC, 0xFF, 0xFF, 0x03, 0x00, 0x00, 
  0x00, 0x00, 0xF8, 0xFF, 0xFF, 0x01, 0x00, 0x00, 0x00, 0x00, 0xF0, 0xFF, 
  0xFF, 0x00, 0x00, 0x00, 0x00, 0x80, 0xE0, 0xFF, 0x7F, 0x30, 0x00, 0x00, 
  0x00, 0xC0, 0x81, 0xFF, 0x1F, 0x38, 0x00, 0x00, 0x00, 0xC0, 0x03, 0xFE, 
  0x07, 0x7C, 0x00, 0x00, 0x00, 0xE0, 0x07, 0x60, 0x00, 0x7E, 0x00, 0x00, 
  0x00, 0xE0, 0x07, 0x00, 0x00, 0xFE, 0x00, 0x00, 0x00, 0xF0, 0x03, 0x00, 
  0x00, 0xF0, 0x00, 0x00, 0x00, 0x70, 0x00, 0x00, 0x00, 0xC0, 0x01, 0x00, 
  0x00, 0x18, 0x00, 0xF8, 0x01, 0x00, 0x01, 0x00, 0x00, 0x00, 0x00, 0xF8, 
  0x01, 0x00, 0x00, 0x00, 0x00, 0x00, 0x00, 0xF0, 0x01, 0x00, 0x00, 0x00, 
  0x00, 0x00, 0x00, 0xF0, 0x00, 0x00, 0x00, 0x00, 0x00, 0x00, 0x00, 0xF0, 
  0x00, 0x00, 0x00, 0x00, 0x00, 0x00, 0x00, 0xE0, 0x00, 0x00, 0x00, 0x00, 
  0x00, 0x00, 0x00, 0x60, 0x00, 0x00, 0x00, 0x00, 0x00, 0x00, 0x00, 0x40, 
  0x00, 0x00, 0x00, 0x00, 0x00, 0x00, 0x00, 0x00, 0x00, 0x00, 0x00, 0x00, 
  0x00, 0x00, 0x00, 0x00, 0x00, 0x00, 0x00, 0x00, 0x00, 0x00, 0x00, 0x00, 
  0x00, 0x00, 0x00, 0x00, 0x00, 0x00, 0x00, 0x00, 0x00, 0x00, 0x00, 0x00, 
  };
